/* XPM */
static char * news_icon_xpm[] = {
"32 32 475 2",
"  	c None",
". 	c #F38E49",
"+ 	c #FFA365",
"@ 	c #FFAF79",
"# 	c #FFB381",
"$ 	c #FFB583",
"% 	c #FFB584",
"& 	c #FFB684",
"* 	c #FFB686",
"= 	c #FFB787",
"- 	c #FFB788",
"; 	c #FFB786",
"> 	c #FFB685",
", 	c #FFB483",
"' 	c #FFB07B",
") 	c #FFA367",
"! 	c #F38E4B",
"~ 	c #EE853E",
"{ 	c #FFA76C",
"] 	c #FFB17B",
"^ 	c #FFB17C",
"/ 	c #FFB27D",
"( 	c #FFB27E",
"_ 	c #FEB37F",
": 	c #FFB481",
"< 	c #FFB482",
"[ 	c #FFB582",
"} 	c #FFB380",
"| 	c #FFB27F",
"1 	c #FFB07C",
"2 	c #FFB07A",
"3 	c #FFA76D",
"4 	c #EE8640",
"5 	c #FF9854",
"6 	c #FFAA71",
"7 	c #DA996D",
"8 	c #AB8266",
"9 	c #B48768",
"0 	c #CB926C",
"a 	c #ECA372",
"b 	c #F7AA77",
"c 	c #FDAE7B",
"d 	c #FEB07C",
"e 	c #FFAF7B",
"f 	c #FFAF7A",
"g 	c #FFAE7A",
"h 	c #FFAE78",
"i 	c #FFAD77",
"j 	c #FFAC75",
"k 	c #FFAB72",
"l 	c #FF9955",
"m 	c #FFA263",
"n 	c #BA8A68",
"o 	c #616263",
"p 	c #5D5F61",
"q 	c #5A5D5F",
"r 	c #6F6660",
"s 	c #A07D65",
"t 	c #F8A974",
"u 	c #FFAD76",
"v 	c #FFAC74",
"w 	c #FFAA73",
"x 	c #FFAA72",
"y 	c #FFA96F",
"z 	c #FFA264",
"A 	c #D66E28",
"B 	c #FFA366",
"C 	c #FFA568",
"D 	c #BF8A67",
"E 	c #656667",
"F 	c #686868",
"G 	c #676767",
"H 	c #636464",
"I 	c #826E61",
"J 	c #D09269",
"K 	c #F9A66F",
"L 	c #FEAA71",
"M 	c #FFA86F",
"N 	c #FFA86D",
"O 	c #FFA66C",
"P 	c #FFA66B",
"Q 	c #FFA468",
"R 	c #D76F29",
"S 	c #CF6B26",
"T 	c #FFA163",
"U 	c #C38C69",
"V 	c #787A7C",
"W 	c #7E7F7F",
"X 	c #777777",
"Y 	c #707070",
"Z 	c #6A6A6A",
"` 	c #696969",
" .	c #656565",
"..	c #8C7260",
"+.	c #E99B67",
"@.	c #FDA66B",
"#.	c #FEA66B",
"$.	c #FFA66A",
"%.	c #FFA56A",
"&.	c #FFA469",
"*.	c #FFA466",
"=.	c #FFA061",
"-.	c #CF6A24",
";.	c #CD6824",
">.	c #FF9F5F",
",.	c #F6AA76",
"'.	c #E6B18F",
").	c #DFB394",
"!.	c #CBAB95",
"~.	c #A99E97",
"{.	c #878A8C",
"].	c #7C7C7D",
"^.	c #6E6E6E",
"/.	c #636363",
"(.	c #615F5D",
"_.	c #D18E61",
":.	c #FBA266",
"<.	c #FFA364",
"[.	c #FFA05F",
"}.	c #FF9E5D",
"|.	c #CD6723",
"1.	c #CC6622",
"2.	c #FF9D5B",
"3.	c #FE9E5D",
"4.	c #FF9F5E",
"5.	c #FFA060",
"6.	c #FFAB73",
"7.	c #FDB27F",
"8.	c #D5AC90",
"9.	c #91908F",
"0.	c #7A7B7B",
"a.	c #6B6B6B",
"b.	c #595C5E",
"c.	c #C0845D",
"d.	c #FA9E5F",
"e.	c #FF9D5C",
"f.	c #FF9C59",
"g.	c #CC6621",
"h.	c #CC6520",
"i.	c #FF9B57",
"j.	c #FF9B58",
"k.	c #F69759",
"l.	c #EE9659",
"m.	c #F5985A",
"n.	c #F79B5C",
"o.	c #FF9F5D",
"p.	c #FFAC73",
"q.	c #CDA589",
"r.	c #7F8385",
"s.	c #706F6F",
"t.	c #575B5E",
"u.	c #C28358",
"v.	c #FC9B5A",
"w.	c #FE9C5A",
"x.	c #FF9A57",
"y.	c #FF9A56",
"z.	c #FF9A55",
"A.	c #CC641F",
"B.	c #CB6825",
"C.	c #FD8432",
"D.	c #FF934A",
"E.	c #B6805A",
"F.	c #55595C",
"G.	c #5D5B5A",
"H.	c #796557",
"I.	c #A77757",
"J.	c #E58E56",
"K.	c #FA9959",
"L.	c #FF9B59",
"M.	c #F3AA78",
"N.	c #8B8785",
"O.	c #727272",
"P.	c #666666",
"Q.	c #D58853",
"R.	c #FD9854",
"S.	c #FF9853",
"T.	c #FE9955",
"U.	c #FD9249",
"V.	c #FC8333",
"W.	c #CA6825",
"X.	c #CA6A29",
"Y.	c #FB7319",
"Z.	c #FD7317",
"`.	c #A6541F",
" +	c #363838",
".+	c #4B4B4B",
"++	c #585858",
"@+	c #5D5D5E",
"#+	c #575A5D",
"$+	c #956F58",
"%+	c #EA9053",
"&+	c #FD9855",
"*+	c #FE9855",
"=+	c #90867F",
"-+	c #717070",
";+	c #625F5D",
">+	c #EE8B48",
",+	c #FE8B3E",
"'+	c #FD812D",
")+	c #FC761D",
"!+	c #FA7217",
"~+	c #FA7318",
"{+	c #C86A29",
"]+	c #C86B2C",
"^+	c #F97318",
"/+	c #FB7419",
"(+	c #A45018",
"_+	c #242526",
":+	c #242424",
"<+	c #1C1C1C",
"[+	c #1E1E1E",
"}+	c #282828",
"|+	c #2D2E2E",
"1+	c #333230",
"2+	c #BD672E",
"3+	c #F88031",
"4+	c #FD8331",
"5+	c #FC8F46",
"6+	c #625B56",
"7+	c #3E3E3E",
"8+	c #2A2A2A",
"9+	c #1C1D1D",
"0+	c #643313",
"a+	c #F56F15",
"b+	c #FA7218",
"c+	c #F97218",
"d+	c #F87318",
"e+	c #F77218",
"f+	c #C76A2C",
"g+	c #C76C2F",
"h+	c #F87218",
"i+	c #CF7131",
"j+	c #8B6F5B",
"k+	c #6D655F",
"l+	c #474C4F",
"m+	c #363637",
"n+	c #212121",
"o+	c #1D1D1D",
"p+	c #101518",
"q+	c #A74E14",
"r+	c #F77017",
"s+	c #EB7B30",
"t+	c #2E3438",
"u+	c #222222",
"v+	c #10161A",
"w+	c #C75C14",
"x+	c #F87117",
"y+	c #F67119",
"z+	c #F57118",
"A+	c #C66C2F",
"B+	c #C66D32",
"C+	c #F67118",
"D+	c #F8751D",
"E+	c #FA7E2A",
"F+	c #F38B45",
"G+	c #AC7855",
"H+	c #454A4C",
"I+	c #1B1B1B",
"J+	c #0E1317",
"K+	c #BC5713",
"L+	c #F56F16",
"M+	c #F9741D",
"N+	c #A0592A",
"O+	c #2C2D2D",
"P+	c #502D16",
"Q+	c #F26F18",
"R+	c #F47118",
"S+	c #F47019",
"T+	c #F37018",
"U+	c #C46C32",
"V+	c #C56E33",
"W+	c #F37019",
"X+	c #F47119",
"Y+	c #F57119",
"Z+	c #F47017",
"`+	c #F67621",
" @	c #ED843E",
".@	c #594E47",
"+@	c #2D2C2C",
"@@	c #1A1A1A",
"#@	c #191919",
"$@	c #171514",
"%@	c #E16615",
"&@	c #F66F16",
"*@	c #FA7822",
"=@	c #2B2A28",
"-@	c #202020",
";@	c #0C1217",
">@	c #D46217",
",@	c #F17019",
"'@	c #F06F17",
")@	c #C36D33",
"!@	c #C36E35",
"~@	c #F06F18",
"{@	c #F16F18",
"]@	c #F27019",
"^@	c #ED6E18",
"/@	c #EC6D18",
"(@	c #F36F18",
"_@	c #F16E17",
":@	c #F38033",
"<@	c #4C423A",
"[@	c #252525",
"}@	c #181818",
"|@	c #161616",
"1@	c #6B3714",
"2@	c #ED6D17",
"3@	c #F1711C",
"4@	c #9B4D1A",
"5@	c #232425",
"6@	c #161717",
"7@	c #854214",
"8@	c #EE6E17",
"9@	c #C26E35",
"0@	c #C27038",
"a@	c #ED6E17",
"b@	c #EB6D17",
"c@	c #C45A14",
"d@	c #5B2E10",
"e@	c #4B2810",
"f@	c #A74F12",
"g@	c #E96B16",
"h@	c #EE6D17",
"i@	c #E4762C",
"j@	c #252B2F",
"k@	c #090F13",
"l@	c #DB6515",
"m@	c #EE6D16",
"n@	c #E96F1C",
"o@	c #12191E",
"p@	c #322012",
"q@	c #EC6D17",
"r@	c #C16F38",
"s@	c #C0703A",
"t@	c #EB6C17",
"u@	c #D66316",
"v@	c #0D0E0F",
"w@	c #121212",
"x@	c #060C10",
"y@	c #AE5113",
"z@	c #EB6B17",
"A@	c #ED701D",
"B@	c #86471E",
"C@	c #212222",
"D@	c #141414",
"E@	c #111213",
"F@	c #8B4413",
"G@	c #EA6C17",
"H@	c #EF6F18",
"I@	c #372215",
"J@	c #090E12",
"K@	c #E26816",
"L@	c #EA6C18",
"M@	c #E96B17",
"N@	c #BF703A",
"O@	c #C0713D",
"P@	c #934613",
"Q@	c #0F1111",
"R@	c #111111",
"S@	c #582E12",
"T@	c #E86A17",
"U@	c #DD691C",
"V@	c #0F161A",
"W@	c #131313",
"X@	c #442511",
"Y@	c #E76B17",
"Z@	c #E96D1A",
"`@	c #7A3E14",
" #	c #171818",
".#	c #0A0E12",
"+#	c #BE5915",
"@#	c #E76B18",
"##	c #E76A17",
"$#	c #BF713D",
"%#	c #BE713D",
"&#	c #AB5216",
"*#	c #15181A",
"=#	c #101010",
"-#	c #6E3713",
";#	c #E86D1A",
">#	c #E66A17",
",#	c #EB6D18",
"'#	c #211812",
")#	c #12100F",
"!#	c #E76B16",
"~#	c #E56A17",
"{#	c #9B4A13",
"]#	c #101213",
"^#	c #0C0E10",
"/#	c #A14C13",
"(#	c #E56916",
"_#	c #BD713C",
":#	c #AF6533",
"<#	c #E66E1E",
"[#	c #E46916",
"}#	c #EA7627",
"|#	c #604B3C",
"1#	c #3A3D3E",
"2#	c #393A3B",
"3#	c #404040",
"4#	c #DC732B",
"5#	c #E26916",
"6#	c #E36917",
"7#	c #E66B18",
"8#	c #4E2B13",
"9#	c #303131",
"0#	c #2F3030",
"a#	c #0B1217",
"b#	c #E26716",
"c#	c #E26917",
"d#	c #AA4F12",
"e#	c #212527",
"f#	c #303132",
"g#	c #242627",
"h#	c #924410",
"i#	c #E56E1E",
"j#	c #AE6433",
"k#	c #E77A32",
"l#	c #E16816",
"m#	c #E8782D",
"n#	c #C78051",
"o#	c #BE7F54",
"p#	c #E47C36",
"q#	c #DF6819",
"r#	c #DF6717",
"s#	c #E06A1A",
"t#	c #C0733F",
"u#	c #B67D57",
"v#	c #B67E57",
"w#	c #AD734D",
"x#	c #E06F23",
"y#	c #DE6615",
"z#	c #D5712F",
"A#	c #B17953",
"B#	c #B77F58",
"C#	c #B47B55",
"D#	c #CD7132",
"E#	c #DF6615",
"F#	c #E67A32",
"G#	c #AB6435",
"H#	c #E17023",
"I#	c #DC6515",
"J#	c #DC6616",
"K#	c #DB6313",
"L#	c #DA6313",
"M#	c #DA6414",
"N#	c #DA6515",
"O#	c #DA6415",
"P#	c #D96415",
"Q#	c #D96213",
"R#	c #D96212",
"S#	c #D96314",
"T#	c #DA6312",
"U#	c #DB6314",
"V#	c #AA6435",
"W#	c #A25F33",
"X#	c #E07933",
"Y#	c #DA691E",
"Z#	c #D76315",
"`#	c #D76314",
" $	c #D66214",
".$	c #D56214",
"+$	c #D46214",
"@$	c #D66215",
"#$	c #D9691E",
"$$	c #DE7833",
"%$	c #A36033",
"&$	c #84502C",
"*$	c #955D38",
"=$	c #955E39",
"-$	c #945D39",
";$	c #935D38",
">$	c #945D38",
",$	c #965E39",
"'$	c #85502C",
"                                                                ",
"                                                                ",
"                                                                ",
"                                                                ",
"          . + @ # $ % & * = = - - - - = ; > % , ' ) !           ",
"        ~ { @ ] ^ / ( _ # : < [ [ $ [ < : } | ( 1 2 3 4         ",
"        5 6 7 8 9 0 a b c ^ d ^ ^ ^ ] 1 e f g h i j k l         ",
"        m { n o o p q r s 7 t i i u u j j v w k x y 3 z         ",
"      A B C D E F F F G H q I J K x L y M M N { O P Q B R       ",
"      S T + U V W X Y Z ` G  .q ..+.@.#.$.%.&.Q *.B m =.-.      ",
"      ;.>.=.,.'.).!.~.{.].^.F G /.(._.:.B <.z T T =.[.}.|.      ",
"      1.2.3.4.>.5.+ 6.7.8.9.0.a.F /.b.c.d.[.>.}.}.e.2.f.g.      ",
"      h.i.j.k.l.m.n.4.o.=.p.q.r.s.G /.t.u.v.w.j.i.x.y.z.A.      ",
"      B.C.D.E.F.G.H.I.J.K.L.5.M.N.O.P./.t.Q.R.S.5 T.U.V.W.      ",
"      X.Y.Z.`. +.+++@+#+$+%+&+*+#.=+-+P./.;+>+,+'+)+!+~+{+      ",
"      ]+^+/+(+_+:+<+[+}+|+1+2+3+4+5+6+7+8+9+0+a+b+c+d+e+f+      ",
"      g+e+h+i+j+k+l+m+n+o+<+p+q+r+~+s+t+u+[+v+w+x+e+y+z+A+      ",
"      B+z+C+D+E+4+F+G+H+8+<+I+J+K+L+M+N+O+<+I+P+Q+R+S+T+U+      ",
"      V+Q+W+X+Y+z+Z+`+ @.@+@@@#@$@%@&@*@=@-@@@;@>@W+,@'@)@      ",
"      !@~@~@{@]@^@/@(@_@:@<@[@}@|@1@2@3@4@5@}@6@7@8@8@8@9@      ",
"      0@2@a@b@c@d@e@f@g@h@i@j@@@|@k@l@m@n@o@}@|@p@q@/@b@r@      ",
"      s@t@/@u@v@w@w@x@y@z@A@B@C@D@E@F@G@H@I@#@D@J@K@L@M@N@      ",
"      O@g@L@P@Q@w@w@R@S@M@T@U@V@D@W@X@Y@Z@`@ #W@.#+#@###$#      ",
"      %#####&#*#w@=#<+-#;#>#,#'#D@=#)#!#~#{#]#R@^#/#>#(#_#      ",
"      :#<#[#}#|#1#2#3#4#5#6#7#8#9#0#a#b#c#d#e#f#g#h#6#i#j#      ",
"        k#l#l#m#n#o#p#q#r#r#s#t#u#v#w#x#y#z#A#B#C#D#E#F#        ",
"        G#H#I#J#K#L#M#N#O#P#P#Q#R#R#Q#P#P#S#R#T#T#U#x#V#        ",
"          W#X#Y#Z#`# $.$.$+$+$+$+$+$+$+$+$.$.$@$#$$$%$          ",
"              &$*$=$-$;$;$;$;$>$-$-$>$>$;$>$>$,$'$              ",
"                                                                ",
"                                                                ",
"                                                                "};
